# xmcd CD database file
#
# Track frame offsets:
#	150
#	17245
#	30535
#	47080
#	67255
#	81500
#	97680
#	113455
#	128780
#	149490
#
# Disc length: 2222 seconds
#
# Revision: 0
# Processed by: cddbd v1.4PL0 Copyright (c) Steve Scherf et al.
# Submitted via: CDex 1.40Beta9
#
DISCID=8408ac0a
DTITLE=Bruce Marshall Group - Love Of The Ride
DYEAR=1900
DGENRE=Blues
TTITLE0=Don't Pour Water (On A Drownin' Man)
TTITLE1=Sorrow's My Mistress
TTITLE2=Angeline
TTITLE3=(Welcome To The) Human Race
TTITLE4=Real Lovin'
TTITLE5=Snakeskin Boots
TTITLE6=If Dreams Were Money
TTITLE7=Never Talk To Strangers
TTITLE8=Black And White
TTITLE9=Say Goodbye
EXTD=ID3G: 0
EXTT0=
EXTT1=
EXTT2=
EXTT3=
EXTT4=
EXTT5=
EXTT6=
EXTT7=
EXTT8=
EXTT9=
PLAYORDER=
